<?xml version="1.0" standalone="no"?>
<!DOCTYPE svg PUBLIC "-//W3C//DTD SVG 20010904//EN"
 "http://www.w3.org/TR/2001/REC-SVG-20010904/DTD/svg10.dtd">
<svg version="1.0" xmlns="http://www.w3.org/2000/svg"
 width="250.000000pt" height="250.000000pt" viewBox="0 0 250.000000 250.000000"
 preserveAspectRatio="xMidYMid meet">

<g transform="translate(0.000000,250.000000) scale(0.100000,-0.100000)"
fill="#000000" stroke="none">
<path d="M1045 2355 c-315 -58 -601 -257 -768 -535 -197 -329 -213 -739 -41
-1083 147 -294 403 -503 729 -594 123 -34 361 -44 486 -18 418 84 742 366 875
761 40 120 54 214 54 362 0 118 -4 153 -29 252 -59 233 -146 386 -312 551
-158 157 -370 265 -593 305 -98 17 -305 17 -401 -1z m469 -170 c94 -28 222
-88 295 -138 97 -67 236 -218 287 -312 6 -11 21 -37 33 -59 57 -100 101 -289
101 -436 0 -156 -47 -350 -110 -453 -17 -27 -30 -51 -30 -55 0 -4 -19 -32 -43
-63 -157 -209 -338 -327 -597 -391 -73 -17 -327 -17 -400 1 -202 49 -341 124
-480 258 -115 109 -200 243 -249 390 -151 452 39 938 456 1171 164 92 297 123
498 118 126 -3 164 -8 239 -31z"/>
<path d="M1230 2156 c0 -12 -3 -51 -6 -85 -6 -52 -5 -61 10 -61 12 0 16 9 16
38 0 63 14 69 39 18 11 -25 25 -46 29 -46 4 0 18 18 32 40 14 22 29 40 34 40
5 0 6 -22 2 -50 -6 -45 -5 -50 13 -50 17 0 19 9 23 78 3 42 4 78 4 78 -1 1
-10 4 -21 8 -16 5 -26 -3 -47 -39 -15 -25 -32 -45 -36 -45 -5 0 -19 23 -30 50
-16 37 -26 50 -41 50 -15 0 -21 -6 -21 -24z"/>
<path d="M968 2132 c-11 -2 -19 -23 -27 -78 -14 -97 -14 -104 4 -104 9 0 15 9
15 25 0 20 7 26 41 37 37 11 43 10 55 -6 8 -12 19 -16 30 -12 15 6 15 9 -7 34
-14 15 -41 45 -60 67 -19 22 -42 39 -51 37z m35 -70 c19 -21 13 -32 -15 -32
-13 0 -18 7 -18 25 0 30 11 32 33 7z"/>
<path d="M1524 2110 c-26 -10 -54 -48 -54 -72 0 -33 23 -67 55 -83 47 -22 82
-19 111 10 34 34 31 99 -6 126 -31 22 -78 31 -106 19z m86 -40 c24 -24 25 -48
4 -78 -21 -31 -67 -29 -93 4 -46 58 36 127 89 74z"/>
<path d="M785 2050 c-22 -16 -44 -29 -48 -30 -14 0 -40 -30 -33 -37 3 -4 17
-1 30 6 30 17 38 12 72 -47 15 -26 28 -49 30 -50 1 -2 9 0 17 5 13 7 9 18 -21
67 l-36 58 22 18 c21 18 30 40 15 40 -5 -1 -26 -14 -48 -30z"/>
<path d="M1706 1960 c-34 -43 -45 -65 -38 -72 8 -8 18 -2 36 18 14 16 26 32
26 37 0 4 6 7 14 7 9 0 15 -21 20 -72 4 -40 11 -77 16 -82 9 -9 46 27 81 82
11 17 25 32 31 32 6 0 5 6 -2 16 -12 13 -18 10 -51 -28 l-37 -43 -6 45 c-3 25
-7 61 -8 80 -4 55 -28 49 -82 -20z"/>
<path d="M1105 1950 c-195 -47 -355 -158 -460 -320 -87 -135 -121 -268 -112
-434 17 -306 220 -559 522 -652 92 -28 306 -26 399 4 252 81 437 276 496 524
77 321 -76 659 -365 806 -116 59 -179 75 -315 78 -69 2 -143 -1 -165 -6z m351
-44 c110 -35 196 -88 284 -176 87 -87 140 -172 177 -285 36 -112 38 -285 4
-395 -31 -100 -70 -173 -136 -253 -124 -150 -287 -235 -489 -253 -80 -7 -167
5 -291 40 -68 19 -93 32 -157 84 -176 143 -262 286 -289 476 -46 338 161 663
486 761 102 31 130 34 241 29 60 -2 117 -12 170 -28z"/>
<path d="M1220 1823 c-19 -7 -60 -44 -60 -55 0 -15 27 -8 45 12 54 59 128 -17
169 -175 8 -33 14 -60 13 -61 -1 -1 -33 -16 -70 -33 l-69 -30 -69 34 -69 35 6
42 c6 32 4 40 -7 36 -8 -3 -15 -13 -17 -24 -7 -43 -9 -43 -89 -17 -99 31 -191
29 -226 -5 -47 -48 -13 -148 90 -262 l55 -60 -66 -75 c-82 -94 -108 -143 -104
-197 3 -44 29 -71 81 -82 40 -9 35 17 -5 29 -18 6 -39 22 -47 36 -13 24 -12
31 12 80 14 30 54 84 88 122 l61 67 40 -32 c22 -18 48 -40 58 -48 13 -11 20
-37 25 -102 l7 -86 -31 -7 c-31 -7 -48 -21 -38 -32 4 -3 20 0 38 6 18 6 34 9
36 7 2 -2 12 -33 23 -70 38 -135 84 -196 145 -196 62 0 113 67 150 195 10 33
19 61 20 63 1 2 29 -6 61 -16 123 -41 215 -37 249 11 17 25 20 70 5 98 -19 34
-29 20 -23 -30 5 -45 3 -50 -21 -66 -33 -22 -122 -16 -206 13 -55 19 -55 20
-53 58 7 127 11 137 67 181 l53 42 35 -36 c22 -21 41 -33 48 -28 8 5 1 19 -24
44 l-36 37 48 50 c67 69 109 134 124 187 10 39 9 48 -6 71 -31 49 -112 60
-221 30 -108 -30 -97 -35 -124 56 -42 141 -104 207 -171 183z m-210 -267 c40
-13 64 -26 62 -34 -1 -7 -5 -47 -9 -87 l-6 -75 -54 -41 -54 -42 -40 39 c-55
53 -117 148 -125 190 -15 82 70 101 226 50z m692 -3 c39 -35 6 -118 -90 -223
l-59 -65 -55 43 -55 42 -12 87 c-6 48 -9 89 -6 91 2 3 33 13 67 23 83 23 185
25 210 2z m-534 -62 l54 -27 -60 -37 c-67 -41 -82 -45 -77 -19 2 9 7 38 10 65
3 26 9 47 13 47 4 -1 31 -13 60 -29z m236 -43 c3 -34 5 -63 3 -64 -1 -2 -31
16 -66 38 l-63 42 43 22 c70 35 75 33 83 -38z m-74 -49 l78 -52 4 -61 c7 -127
6 -127 -82 -181 -51 -30 -85 -45 -96 -41 -10 4 -48 27 -86 52 l-68 46 0 88 c0
68 4 91 16 101 16 14 145 97 153 98 2 1 38 -22 81 -50z m-280 -144 l0 -66 -41
33 -41 33 39 32 c21 18 39 33 41 33 1 0 2 -29 2 -65z m437 29 c18 -14 33 -29
33 -34 0 -4 -18 -23 -40 -40 l-40 -32 0 66 c0 36 3 66 7 66 3 0 21 -11 40 -26z
m-335 -201 c32 -21 58 -40 58 -44 0 -6 -102 -50 -107 -46 -5 6 -20 127 -15
127 3 0 32 -17 64 -37z m252 -25 c-4 -35 -8 -66 -11 -70 -4 -8 -113 42 -113
52 0 6 111 78 123 79 4 1 5 -27 1 -61z m-84 -73 l69 -35 -19 -65 c-35 -121
-92 -195 -140 -180 -12 4 -35 28 -51 53 -28 44 -69 156 -69 188 0 13 103 73
128 74 7 0 44 -16 82 -35z"/>
<path d="M1111 1716 c-9 -11 -10 -20 -1 -35 19 -36 64 -20 58 20 -4 28 -39 37
-57 15z"/>
<path d="M1641 1126 c-22 -26 10 -63 43 -50 35 13 24 64 -14 64 -10 0 -23 -6
-29 -14z"/>
<path d="M912 951 c-8 -4 -12 -19 -10 -32 4 -30 45 -33 62 -6 9 15 7 21 -8 33
-23 16 -26 17 -44 5z"/>
<path d="M625 1939 c-4 -6 10 -28 31 -50 l38 -39 -81 0 c-49 0 -85 -4 -89 -11
-3 -6 19 -37 52 -70 43 -43 61 -56 70 -48 10 8 5 17 -22 41 -18 16 -34 34 -34
39 0 5 33 9 74 9 104 0 108 11 30 83 -39 37 -65 54 -69 46z"/>
<path d="M1919 1847 c-9 -7 -35 -29 -58 -50 -34 -31 -40 -41 -31 -52 10 -12
18 -8 48 19 21 19 48 43 61 53 35 28 15 57 -20 30z"/>
<path d="M1926 1739 c-29 -23 -35 -73 -14 -112 17 -33 61 -68 72 -57 5 5 -3
19 -23 35 -52 44 -37 125 23 125 32 0 66 -40 66 -78 0 -22 5 -32 15 -32 19 0
19 30 1 74 -27 64 -90 85 -140 45z"/>
<path d="M420 1667 c-9 -15 -8 -21 3 -30 8 -7 34 -38 57 -70 35 -47 45 -55 52
-43 6 11 4 21 -6 32 -14 13 -14 18 1 49 13 27 23 35 44 35 22 0 39 15 39 35 0
2 -40 5 -89 7 -78 3 -91 1 -101 -15z m97 -32 c1 -5 -2 -17 -7 -25 -8 -13 -12
-11 -30 7 -11 12 -20 25 -20 28 0 10 53 1 57 -10z"/>
<path d="M358 1492 c-34 -59 -31 -111 7 -126 26 -10 51 10 69 54 9 22 23 40
31 40 22 0 19 -52 -5 -83 -13 -16 -16 -28 -10 -32 15 -9 26 0 44 39 21 44 20
69 -2 96 -27 33 -59 19 -83 -36 -11 -24 -26 -44 -34 -44 -22 0 -18 50 5 75 17
18 18 24 7 33 -10 9 -17 5 -29 -16z"/>
<path d="M1970 1514 c0 -13 16 -36 24 -35 27 4 35 -3 41 -35 5 -27 2 -41 -11
-55 -9 -10 -14 -25 -10 -34 5 -13 19 -5 73 41 38 31 68 61 67 66 -1 4 -2 12
-2 17 -1 5 -32 14 -69 21 -38 6 -78 14 -90 17 -13 3 -23 1 -23 -3z m133 -52
c8 -4 -21 -31 -34 -32 -10 0 -20 30 -14 40 5 8 26 5 48 -8z"/>
<path d="M375 1263 c-67 -17 -91 -115 -38 -163 16 -14 16 -14 4 3 -8 9 -11 20
-8 23 9 9 68 -36 62 -47 -8 -12 5 -11 44 2 68 24 81 121 22 166 -29 23 -32 13
-4 -12 15 -13 22 -25 15 -25 -10 0 -10 -5 2 -22 21 -29 20 -40 -5 -72 -29 -37
-37 -25 -9 14 12 17 20 33 18 36 -3 2 -17 -14 -32 -36 l-26 -40 -45 28 c-25
15 -45 31 -45 36 0 5 12 29 26 53 l25 44 37 -21 37 -22 -25 22 c-14 13 -24 27
-22 31 2 9 -1 10 -33 2z m-14 -30 c-5 -10 -16 -27 -25 -38 -14 -18 -15 -18
-16 -2 0 9 9 26 20 37 25 25 34 26 21 3z"/>
<path d="M2094 1261 c6 -10 -62 -57 -70 -48 -3 2 8 15 23 27 17 14 20 20 10
17 -10 -4 -20 -7 -23 -7 -2 0 -10 -13 -19 -30 -16 -31 -22 -86 -6 -62 6 10 14
4 31 -23 27 -43 21 -57 -9 -19 -22 28 -28 25 -11 -6 5 -10 24 -23 41 -29 41
-14 49 -14 44 2 -5 13 54 52 64 41 3 -3 -5 -15 -19 -26 -14 -12 -19 -19 -11
-16 30 9 67 79 46 87 -6 2 -15 11 -22 20 -7 10 -12 11 -13 4 0 -6 5 -15 10
-18 20 -12 9 -30 -35 -57 l-44 -27 -31 46 c-34 50 -32 57 24 87 35 19 36 19
57 0 22 -19 22 -19 10 4 -15 29 3 29 23 0 9 -12 16 -18 16 -12 0 6 -8 18 -17
26 -21 18 -78 34 -69 19z"/>
<path d="M376 1185 c-15 -23 -15 -25 6 -39 20 -14 24 -14 40 1 23 20 23 32 1
49 -25 18 -28 17 -47 -11z"/>
<path d="M2078 1196 c-22 -16 -22 -25 -2 -47 15 -16 18 -17 40 -3 22 15 22 17
7 40 -18 27 -21 28 -45 10z"/>
<path d="M445 969 c-33 -16 -64 -30 -68 -32 -5 -1 -5 -10 -1 -20 4 -11 10 -14
18 -8 6 4 21 12 33 15 18 6 25 1 37 -23 23 -44 20 -70 -9 -77 -16 -4 -25 -13
-25 -26 0 -11 4 -18 8 -16 115 47 151 65 148 73 -2 6 -19 9 -40 7 -32 -3 -38
1 -52 32 -20 40 -13 66 16 66 15 0 20 5 18 17 -5 25 -18 24 -83 -8z"/>
<path d="M2114 963 c-3 -10 -10 -26 -15 -35 -5 -10 -9 -25 -9 -33 0 -20 -19
-19 -75 5 -54 23 -75 25 -75 7 0 -11 122 -67 146 -67 5 0 21 32 36 70 20 55
23 70 12 70 -8 0 -17 -8 -20 -17z"/>
<path d="M1902 827 c-60 -34 -75 -114 -28 -153 53 -46 118 -24 145 49 28 73
-50 142 -117 104z m84 -53 c19 -28 11 -59 -21 -80 -29 -19 -60 -11 -81 21 -14
22 -14 27 2 54 27 46 72 48 100 5z"/>
<path d="M590 792 c-78 -51 -110 -80 -97 -90 9 -8 29 0 76 33 78 55 74 50 59
62 -9 8 -20 6 -38 -5z"/>
<path d="M611 694 c-50 -41 -39 -109 23 -152 39 -27 58 -28 80 -3 16 18 16 20
-13 50 -16 17 -32 27 -35 22 -3 -5 1 -14 9 -21 20 -16 19 -40 0 -40 -24 0 -65
46 -65 73 0 55 73 76 109 31 11 -14 21 -30 23 -36 2 -6 10 -8 16 -4 30 18 -53
106 -100 106 -9 0 -30 -12 -47 -26z"/>
<path d="M1738 655 c-76 -42 -70 -145 9 -169 31 -10 91 21 108 55 21 39 19 64
-7 93 -29 32 -74 41 -110 21z m89 -52 c20 -30 6 -68 -31 -85 -20 -9 -30 -8
-51 6 -22 14 -26 24 -23 54 5 61 71 77 105 25z"/>
<path d="M776 529 c-31 -57 -36 -73 -25 -80 14 -9 21 -3 45 37 10 17 12 17 47
1 46 -22 50 -29 32 -63 -14 -27 -12 -44 5 -44 13 0 81 133 75 147 -7 20 -21
15 -33 -12 -14 -30 -29 -31 -72 -7 -23 13 -29 22 -25 37 23 75 -4 66 -49 -16z"/>
<path d="M1603 564 c-9 -4 -9 -13 -2 -30 14 -37 12 -42 -21 -59 -41 -21 -59
-19 -70 10 -10 26 -24 32 -35 16 -4 -7 37 -107 62 -150 1 -2 9 -1 18 3 14 5
14 8 0 35 -8 17 -15 32 -15 35 0 5 78 46 87 46 1 0 9 -13 18 -30 9 -16 23 -30
31 -30 9 0 14 4 12 8 -42 103 -64 152 -68 151 -3 0 -10 -3 -17 -5z"/>
<path d="M1330 479 c-64 -26 -80 -85 -37 -135 18 -21 32 -26 64 -26 48 1 110
29 96 43 -6 6 -20 4 -39 -6 -40 -21 -70 -19 -95 6 -15 15 -19 28 -14 47 10 42
33 54 88 48 41 -4 61 4 39 18 -18 11 -79 14 -102 5z"/>
<path d="M1092 468 c-30 -30 -4 -67 61 -88 21 -6 36 -17 34 -23 -6 -19 -56
-20 -82 -3 -15 10 -26 12 -30 6 -10 -17 4 -29 45 -40 75 -20 128 16 95 66 -8
13 -25 24 -36 24 -29 0 -59 18 -59 35 0 19 37 19 72 1 33 -18 51 0 23 21 -23
16 -107 17 -123 1z"/>
</g>
</svg>
